<?xml version="1.0" encoding="UTF-8" standalone="no"?>
<svg width="263px" height="30px" viewBox="0 0 263 30" version="1.1" xmlns="http://www.w3.org/2000/svg" xmlns:xlink="http://www.w3.org/1999/xlink">
    <!-- Generator: Sketch 41 (35326) - http://www.bohemiancoding.com/sketch -->
    <title>Group 54</title>
    <desc>Created with Sketch.</desc>
    <defs></defs>
    <g id="Home" stroke="none" stroke-width="1" fill="none" fill-rule="evenodd">
        <g id="Homepage" transform="translate(-41.000000, -58.000000)">
            <g id="Group-54" transform="translate(41.000000, 57.813000)">
                <path d="M89.0621475,26.8508988 L95.3773811,26.8508988 C95.5519959,26.832575 96.3011148,26.7323332 97.0017295,26.3399889 C97.8909713,25.8420135 98.3059508,25.0961283 98.3059508,23.9934684 C98.3059508,19.8091816 98.3178074,7.15284549 98.3178074,7.02565697 C98.3178074,5.86587008 97.8812705,5.09842746 96.9446025,4.609075 C96.2536885,4.2490668 95.5239713,4.16930451 95.3967828,4.15852582 L89.0621475,4.15852582 L89.0621475,26.8508988 Z M95.4981025,30.136243 L85.7768033,30.136243 L85.7768033,0.872103689 L95.5207377,0.874259426 C95.6737951,0.880726639 97.0545451,0.960488934 98.4643975,1.69667336 C100.488635,2.75298484 101.603152,4.64572254 101.603152,7.02673484 C101.603152,7.1560791 101.592373,19.8102594 101.592373,23.9934684 C101.592373,26.3378332 100.482168,28.2154807 98.4676311,29.2825709 C97.0685574,30.0241447 95.6985861,30.1243865 95.5466066,30.1340873 L95.4981025,30.136243 Z" id="Fill-4" fill="#E1E7EB"></path>
                <path d="M33.0360336,29.9949344 C28.5262303,29.9949344 24.8560869,26.3258689 24.8560869,21.8149877 L24.8560869,9.01960656 C24.8560869,4.50872541 28.5262303,0.839659836 33.0360336,0.839659836 C37.5458369,0.839659836 41.2159803,4.50872541 41.2159803,9.01960656 L41.2159803,10.6622787 L37.9295582,10.6622787 L37.9295582,9.01960656 C37.9295582,6.32062295 35.7339393,4.12608197 33.0360336,4.12608197 C30.3381279,4.12608197 28.142509,6.32062295 28.142509,9.01960656 L28.142509,21.8149877 C28.142509,24.5139713 30.3381279,26.7095902 33.0360336,26.7095902 C35.7339393,26.7095902 37.9295582,24.5139713 37.9295582,21.8149877 L37.9295582,20.1723156 L41.2159803,20.1723156 L41.2159803,21.8149877 C41.2159803,26.3258689 37.5458369,29.9949344 33.0360336,29.9949344" id="Fill-6" fill="#E1E7EB"></path>
                <path d="M59.027332,9.00397746 C57.8718566,9.00397746 56.9330328,9.9438791 56.9330328,11.0982766 C56.9330328,12.253752 57.8718566,13.1936537 59.027332,13.1936537 C60.1828074,13.1936537 61.1216311,12.253752 61.1216311,11.0982766 C61.1216311,9.9438791 60.1828074,9.00397746 59.027332,9.00397746" id="Fill-8" fill="#3CA548"></path>
                <path d="M67.9618947,9.00397746 C66.8064193,9.00397746 65.8675955,9.9438791 65.8675955,11.0982766 C65.8675955,12.253752 66.8064193,13.1936537 67.9618947,13.1936537 C69.1173701,13.1936537 70.0561939,12.253752 70.0561939,11.0982766 C70.0561939,9.9438791 69.1173701,9.00397746 67.9618947,9.00397746" id="Fill-10" fill="#EC1F24"></path>
                <path d="M70.6102184,17.0599693 C70.2458988,16.7312193 69.6821734,16.7603217 69.3512676,17.1235635 C69.3297102,17.1483545 67.0888209,19.5670922 63.4132881,19.5735594 C59.7506898,19.5670922 57.513034,17.1645225 57.4763865,17.1235635 C57.1465586,16.7592439 56.5849889,16.7290635 56.2185135,17.0567357 C55.8509602,17.3854857 55.819702,17.9492111 56.148452,18.3156865 C56.2045012,18.3782029 56.8997266,19.1391783 58.1446652,19.8850635 L58.1446652,23.1790307 L60.0632717,20.785084 C61.013952,21.1181455 62.124157,21.3498873 63.3787963,21.3563545 C63.3852635,21.3563545 63.3917307,21.3574324 63.398198,21.3574324 L63.4132881,21.3574324 L63.4283783,21.3574324 C63.4348455,21.3574324 63.4413127,21.3563545 63.4488578,21.3563545 C64.6355914,21.3509652 65.6919029,21.1418586 66.6091693,20.8368217 L68.4857389,23.1790307 L68.4857389,19.9993176 C69.8546324,19.2200184 70.6199193,18.3814365 70.6781242,18.3156865 C71.0057963,17.9502889 70.9745381,17.3887193 70.6102184,17.0599693" id="Fill-12" fill="#F2F2F2"></path>
                <path d="M222.764341,4.01991189 L228.454411,4.01991189 C231.777481,4.01991189 234.480776,6.72320697 234.480776,10.0462766 C234.480776,13.3693463 231.777481,16.0726414 228.454411,16.0726414 L222.764341,16.0726414 L222.764341,4.01991189 Z M234.951805,16.5436701 C236.687173,14.8083012 237.643243,12.500584 237.643243,10.0462766 C237.643243,7.59196926 236.687173,5.28425205 234.951805,3.5488832 C233.222903,1.81998156 230.927042,0.864989754 228.482436,0.857444672 L228.482436,0.857444672 L222.641464,0.857444672 L222.641464,0.861756148 L219.601874,0.861756148 L219.601874,30.0698463 L222.764341,30.0698463 L222.764341,19.2351086 L225.985014,19.2351086 L232.577259,30.0698463 L234.42796,30.0698463 L236.278661,30.0698463 L229.640067,19.1596578 C231.645981,18.903125 233.498837,17.9966373 234.951805,16.5436701 L234.951805,16.5436701 Z" id="Fill-14" fill="#E1E7EB"></path>
                <polygon id="Fill-16" fill="#E1E7EB" points="59.9117234 30.0010783 55.1356865 30.0010783 47.6638996 21.4384881 47.6638996 9.54636107 55.1356865 0.983770902 59.9117234 0.983770902 59.9117234 4.22707828 56.6102111 4.22707828 50.907207 10.7621971 50.907207 20.222652 56.6102111 26.7577709 59.9117234 26.7577709"></polygon>
                <polygon id="Fill-18" fill="#E1E7EB" points="71.8409291 30.0010783 67.0648922 30.0010783 67.0648922 26.7577709 70.3664045 26.7577709 76.0683307 20.222652 76.0683307 10.7621971 70.3664045 4.22707828 67.0648922 4.22707828 67.0648922 0.983770902 71.8409291 0.983770902 79.312716 9.54636107 79.312716 21.4384881"></polygon>
                <path d="M187.8692,9.21265287 L187.8692,10.0124316 C187.264515,9.8378168 186.76654,9.63086598 186.368806,9.38942336 C185.461241,8.84078811 184.935241,8.07765697 184.935241,5.80550943 C184.935241,5.00896434 185.088298,4.65003402 185.215486,4.48943156 C185.490343,4.14451352 186.230839,4.09277582 186.647974,4.09277582 C187.142716,4.09277582 187.405716,4.24259959 187.618056,4.64464467 C187.800216,4.9895627 187.865966,5.40130861 187.8789,5.56191107 L187.8692,9.21265287 Z M197.698286,14.0156365 C197.845954,14.0177922 197.9947,14.019948 198.146679,14.0221037 L198.146679,30.0963619 L212.522216,30.0963619 L212.522216,26.8099398 L201.432023,26.8099398 L201.432023,14.0264152 L212.522216,14.0264152 L212.522216,10.739993 L201.432023,10.739993 L201.432023,4.1175668 L212.522216,4.1175668 L212.522216,0.831144672 L198.146679,0.831144672 L198.146679,10.7356816 C197.9947,10.7335258 197.845954,10.7313701 197.698286,10.7292143 L194.454978,10.7292143 C193.220818,10.707657 192.12247,10.6537635 191.155622,10.5664561 L191.155622,9.21696434 L191.164245,5.51987418 L191.164245,5.46166926 C191.157777,5.27519795 191.101728,4.2943373 190.602675,3.26605041 C189.833077,1.68050533 188.428614,0.807431557 186.647974,0.807431557 C184.856556,0.807431557 183.50922,1.35714467 182.644769,2.44255861 C181.975413,3.28437418 181.648818,4.38487828 181.648818,5.80550943 C181.648818,7.27464467 181.828823,8.40425123 182.213622,9.3603209 C182.698663,10.5664561 183.501675,11.4955791 184.666851,12.2005053 C185.516212,12.7146488 186.558511,13.1102266 187.8692,13.3990955 L187.8692,15.4761488 L187.876745,15.6356734 C187.877823,15.6475299 187.960818,16.9495955 187.184753,18.9565873 C185.945204,22.1621693 183.451015,24.7867799 181.272642,26.6062225 C179.8574,25.4184111 178.651265,24.1551488 177.676872,22.8412266 C176.731581,21.5661078 175.999708,20.2392512 175.50281,18.8973045 C174.658839,16.6186898 174.782794,15.0568578 174.783872,15.0417676 L174.782794,15.0557799 L174.791417,14.8833209 L174.791417,0.807431557 L171.504995,0.807431557 L171.504995,14.8175709 C171.434933,15.8296898 171.270019,23.1290176 180.27238,30.0155217 L182.268593,30.0155217 C184.408163,28.3793168 186.203892,26.6170012 187.607277,24.7770791 C188.751974,23.2745299 189.641216,21.7148537 190.250212,20.142243 C191.212749,17.652366 191.183646,15.8792717 191.155622,15.416866 L191.155622,13.8647348 C192.145105,13.9466529 193.241298,13.995157 194.454978,14.0156365 L197.698286,14.0156365 Z" id="Fill-20" fill="#E1E7EB"></path>
                <polygon id="Fill-22" fill="#E1E7EB" points="261.954359 15.3580143 262.109573 15.2028012 247.702777 0.796006148 243.056085 0.796006148 257.618093 15.3580143 242.906261 30.0698463 247.552954 30.0698463 262.109573 15.5132275"></polygon>
                <polygon id="Fill-24" fill="#E1E7EB" points="4.84297254 15.3580143 19.4049807 0.796006148 14.7582881 0.796006148 0.351493033 15.2028012 0.506706148 15.3580143 0.351493033 15.5132275 14.9749398 30.1366742 19.6216324 30.1366742"></polygon>
                <polygon id="Fill-26" fill="#FFFFFF" points="143.915756 4.15820246 143.915756 0.872858197 129.540219 0.872858197 129.540219 30.1369975 132.825563 30.1369975 132.825563 19.2828582 143.915756 19.2828582 143.915756 15.9964361 132.825563 15.9964361 132.825563 4.15820246"></polygon>
                <polygon id="Fill-28" fill="#FFFFFF" points="165.043494 4.15820246 165.043494 0.872858197 150.667957 0.872858197 150.667957 30.1369975 165.043494 30.1369975 165.043494 26.8505754 153.95438 26.8505754 153.95438 19.2828582 165.043494 19.2828582 165.043494 15.9964361 153.95438 15.9964361 153.95438 4.15820246"></polygon>
                <polygon id="Fill-30" fill="#FFFFFF" points="122.579234 4.15820246 122.579234 0.872858197 108.203697 0.872858197 108.203697 30.1369975 122.579234 30.1369975 122.579234 26.8505754 111.489041 26.8505754 111.489041 19.2828582 122.579234 19.2828582 122.579234 15.9964361 111.489041 15.9964361 111.489041 4.15820246"></polygon>
                <path d="M89.0621475,26.8508988 L95.3773811,26.8508988 C95.5519959,26.832575 96.3011148,26.7323332 97.0017295,26.3399889 C97.8909713,25.8420135 98.3059508,25.0961283 98.3059508,23.9934684 C98.3059508,19.8091816 98.3178074,7.15284549 98.3178074,7.02565697 C98.3178074,5.86587008 97.8812705,5.09842746 96.9446025,4.609075 C96.2536885,4.2490668 95.5239713,4.16930451 95.3967828,4.15852582 L89.0621475,4.15852582 L89.0621475,26.8508988 Z M95.4981025,30.136243 L85.7768033,30.136243 L85.7768033,0.872103689 L95.5207377,0.874259426 C95.6737951,0.880726639 97.0545451,0.960488934 98.4643975,1.69667336 C100.488635,2.75298484 101.603152,4.64572254 101.603152,7.02673484 C101.603152,7.1560791 101.592373,19.8102594 101.592373,23.9934684 C101.592373,26.3378332 100.482168,28.2154807 98.4676311,29.2825709 C97.0685574,30.0241447 95.6985861,30.1243865 95.5466066,30.1340873 L95.4981025,30.136243 Z" id="Fill-32" fill="#FFFFFF"></path>
                <path d="M33.0360336,29.9949344 C28.5262303,29.9949344 24.8560869,26.3258689 24.8560869,21.8149877 L24.8560869,9.01960656 C24.8560869,4.50872541 28.5262303,0.839659836 33.0360336,0.839659836 C37.5458369,0.839659836 41.2159803,4.50872541 41.2159803,9.01960656 L41.2159803,10.6622787 L37.9295582,10.6622787 L37.9295582,9.01960656 C37.9295582,6.32062295 35.7339393,4.12608197 33.0360336,4.12608197 C30.3381279,4.12608197 28.142509,6.32062295 28.142509,9.01960656 L28.142509,21.8149877 C28.142509,24.5139713 30.3381279,26.7095902 33.0360336,26.7095902 C35.7339393,26.7095902 37.9295582,24.5139713 37.9295582,21.8149877 L37.9295582,20.1723156 L41.2159803,20.1723156 L41.2159803,21.8149877 C41.2159803,26.3258689 37.5458369,29.9949344 33.0360336,29.9949344" id="Fill-34" fill="#FFFFFF"></path>
                <path d="M59.027332,9.00397746 C57.8718566,9.00397746 56.9330328,9.9438791 56.9330328,11.0982766 C56.9330328,12.253752 57.8718566,13.1936537 59.027332,13.1936537 C60.1828074,13.1936537 61.1216311,12.253752 61.1216311,11.0982766 C61.1216311,9.9438791 60.1828074,9.00397746 59.027332,9.00397746" id="Fill-36" fill="#3CA548"></path>
                <path d="M67.9618947,9.00397746 C66.8064193,9.00397746 65.8675955,9.9438791 65.8675955,11.0982766 C65.8675955,12.253752 66.8064193,13.1936537 67.9618947,13.1936537 C69.1173701,13.1936537 70.0561939,12.253752 70.0561939,11.0982766 C70.0561939,9.9438791 69.1173701,9.00397746 67.9618947,9.00397746" id="Fill-38" fill="#FFFFFF"></path>
                <path d="M70.6102184,17.0599693 C70.2458988,16.7312193 69.6821734,16.7603217 69.3512676,17.1235635 C69.3297102,17.1483545 67.0888209,19.5670922 63.4132881,19.5735594 C59.7506898,19.5670922 57.513034,17.1645225 57.4763865,17.1235635 C57.1465586,16.7592439 56.5849889,16.7290635 56.2185135,17.0567357 C55.8509602,17.3854857 55.819702,17.9492111 56.148452,18.3156865 C56.2045012,18.3782029 56.8997266,19.1391783 58.1446652,19.8850635 L58.1446652,23.1790307 L60.0632717,20.785084 C61.013952,21.1181455 62.124157,21.3498873 63.3787963,21.3563545 C63.3852635,21.3563545 63.3917307,21.3574324 63.398198,21.3574324 L63.4132881,21.3574324 L63.4283783,21.3574324 C63.4348455,21.3574324 63.4413127,21.3563545 63.4488578,21.3563545 C64.6355914,21.3509652 65.6919029,21.1418586 66.6091693,20.8368217 L68.4857389,23.1790307 L68.4857389,19.9993176 C69.8546324,19.2200184 70.6199193,18.3814365 70.6781242,18.3156865 C71.0057963,17.9502889 70.9745381,17.3887193 70.6102184,17.0599693" id="Fill-40" fill="#FFFFFF"></path>
                <path d="M222.764341,4.01991189 L228.454411,4.01991189 C231.777481,4.01991189 234.480776,6.72320697 234.480776,10.0462766 C234.480776,13.3693463 231.777481,16.0726414 228.454411,16.0726414 L222.764341,16.0726414 L222.764341,4.01991189 Z M234.951805,16.5436701 C236.687173,14.8083012 237.643243,12.500584 237.643243,10.0462766 C237.643243,7.59196926 236.687173,5.28425205 234.951805,3.5488832 C233.222903,1.81998156 230.927042,0.864989754 228.482436,0.857444672 L228.482436,0.857444672 L222.641464,0.857444672 L222.641464,0.861756148 L219.601874,0.861756148 L219.601874,30.0698463 L222.764341,30.0698463 L222.764341,19.2351086 L225.985014,19.2351086 L232.577259,30.0698463 L234.42796,30.0698463 L236.278661,30.0698463 L229.640067,19.1596578 C231.645981,18.903125 233.498837,17.9966373 234.951805,16.5436701 L234.951805,16.5436701 Z" id="Fill-42" fill="#FFFFFF"></path>
                <polygon id="Fill-44" fill="#FFFFFF" points="59.9117234 30.0010783 55.1356865 30.0010783 47.6638996 21.4384881 47.6638996 9.54636107 55.1356865 0.983770902 59.9117234 0.983770902 59.9117234 4.22707828 56.6102111 4.22707828 50.907207 10.7621971 50.907207 20.222652 56.6102111 26.7577709 59.9117234 26.7577709"></polygon>
                <polygon id="Fill-46" fill="#FFFFFF" points="71.8409291 30.0010783 67.0648922 30.0010783 67.0648922 26.7577709 70.3664045 26.7577709 76.0683307 20.222652 76.0683307 10.7621971 70.3664045 4.22707828 67.0648922 4.22707828 67.0648922 0.983770902 71.8409291 0.983770902 79.312716 9.54636107 79.312716 21.4384881"></polygon>
                <path d="M187.8692,9.21265287 L187.8692,10.0124316 C187.264515,9.8378168 186.76654,9.63086598 186.368806,9.38942336 C185.461241,8.84078811 184.935241,8.07765697 184.935241,5.80550943 C184.935241,5.00896434 185.088298,4.65003402 185.215486,4.48943156 C185.490343,4.14451352 186.230839,4.09277582 186.647974,4.09277582 C187.142716,4.09277582 187.405716,4.24259959 187.618056,4.64464467 C187.800216,4.9895627 187.865966,5.40130861 187.8789,5.56191107 L187.8692,9.21265287 Z M197.698286,14.0156365 C197.845954,14.0177922 197.9947,14.019948 198.146679,14.0221037 L198.146679,30.0963619 L212.522216,30.0963619 L212.522216,26.8099398 L201.432023,26.8099398 L201.432023,14.0264152 L212.522216,14.0264152 L212.522216,10.739993 L201.432023,10.739993 L201.432023,4.1175668 L212.522216,4.1175668 L212.522216,0.831144672 L198.146679,0.831144672 L198.146679,10.7356816 C197.9947,10.7335258 197.845954,10.7313701 197.698286,10.7292143 L194.454978,10.7292143 C193.220818,10.707657 192.12247,10.6537635 191.155622,10.5664561 L191.155622,9.21696434 L191.164245,5.51987418 L191.164245,5.46166926 C191.157777,5.27519795 191.101728,4.2943373 190.602675,3.26605041 C189.833077,1.68050533 188.428614,0.807431557 186.647974,0.807431557 C184.856556,0.807431557 183.50922,1.35714467 182.644769,2.44255861 C181.975413,3.28437418 181.648818,4.38487828 181.648818,5.80550943 C181.648818,7.27464467 181.828823,8.40425123 182.213622,9.3603209 C182.698663,10.5664561 183.501675,11.4955791 184.666851,12.2005053 C185.516212,12.7146488 186.558511,13.1102266 187.8692,13.3990955 L187.8692,15.4761488 L187.876745,15.6356734 C187.877823,15.6475299 187.960818,16.9495955 187.184753,18.9565873 C185.945204,22.1621693 183.451015,24.7867799 181.272642,26.6062225 C179.8574,25.4184111 178.651265,24.1551488 177.676872,22.8412266 C176.731581,21.5661078 175.999708,20.2392512 175.50281,18.8973045 C174.658839,16.6186898 174.782794,15.0568578 174.783872,15.0417676 L174.782794,15.0557799 L174.791417,14.8833209 L174.791417,0.807431557 L171.504995,0.807431557 L171.504995,14.8175709 C171.434933,15.8296898 171.270019,23.1290176 180.27238,30.0155217 L182.268593,30.0155217 C184.408163,28.3793168 186.203892,26.6170012 187.607277,24.7770791 C188.751974,23.2745299 189.641216,21.7148537 190.250212,20.142243 C191.212749,17.652366 191.183646,15.8792717 191.155622,15.416866 L191.155622,13.8647348 C192.145105,13.9466529 193.241298,13.995157 194.454978,14.0156365 L197.698286,14.0156365 Z" id="Fill-48" fill="#FFFFFF"></path>
                <polygon id="Fill-50" fill="#FFFFFF" points="261.954359 15.3580143 262.109573 15.2028012 247.702777 0.796006148 243.056085 0.796006148 257.618093 15.3580143 242.906261 30.0698463 247.552954 30.0698463 262.109573 15.5132275"></polygon>
                <polygon id="Fill-52" fill="#FFFFFF" points="4.84297254 15.3580143 19.4049807 0.796006148 14.7582881 0.796006148 0.351493033 15.2028012 0.506706148 15.3580143 0.351493033 15.5132275 14.9749398 30.1366742 19.6216324 30.1366742"></polygon>
            </g>
        </g>
    </g>
</svg>